<svg width="774" height="866" viewBox="0 0 774 866" fill="none" xmlns="http://www.w3.org/2000/svg">
<g opacity="0.3">
<circle cx="164" cy="742" r="6" fill="#3E6088"/>
<circle cx="164" cy="742" r="6" fill="#3E6088"/>
<circle cx="339" cy="860" r="6" fill="#3E6088"/>
<circle cx="339" cy="860" r="6" fill="#3E6088"/>
<circle cx="137" cy="68" r="6" fill="#3E6088"/>
<circle cx="137" cy="68" r="6" fill="#3E6088"/>
<circle cx="449" cy="68" r="6" fill="#3E6088"/>
<circle cx="449" cy="68" r="6" fill="#3E6088"/>
<circle cx="327" cy="626" r="6" fill="#3E6088"/>
<circle cx="327" cy="626" r="6" fill="#3E6088"/>
<circle r="2" transform="matrix(1 0 0 -1 152 578)" fill="#3E6088"/>
<circle r="2" transform="matrix(1 0 0 -1 152 578)" fill="#3E6088"/>
<circle r="2" transform="matrix(1 0 0 -1 268 818)" fill="#3E6088"/>
<circle r="2" transform="matrix(1 0 0 -1 268 818)" fill="#3E6088"/>
<circle r="2" transform="matrix(1 0 0 -1 331 560)" fill="#3E6088"/>
<circle r="2" transform="matrix(1 0 0 -1 331 560)" fill="#3E6088"/>
<circle r="2" transform="matrix(1 0 0 -1 387 734)" fill="#3E6088"/>
<circle r="2" transform="matrix(1 0 0 -1 387 734)" fill="#3E6088"/>
<circle r="2" transform="matrix(1 0 0 -1 538 387)" fill="#3E6088"/>
<circle r="2" transform="matrix(1 0 0 -1 538 387)" fill="#3E6088"/>
<circle r="2" transform="matrix(1 0 0 -1 689 40)" fill="#3E6088"/>
<circle r="2" transform="matrix(1 0 0 -1 689 40)" fill="#3E6088"/>
<circle r="2" transform="matrix(1 0 0 -1 291 1)" fill="#3E6088"/>
<circle r="2" transform="matrix(1 0 0 -1 291 1)" fill="#3E6088"/>
<circle cx="15" cy="582" r="6" fill="#3E6088"/>
<circle cx="15" cy="582" r="6" fill="#3E6088"/>
<circle r="2" transform="matrix(1 0 0 -1 21 461)" fill="#3E6088"/>
<circle r="2" transform="matrix(1 0 0 -1 21 461)" fill="#3E6088"/>
<circle r="2" transform="matrix(1 0 0 -1 51 750)" fill="#3E6088"/>
<circle r="2" transform="matrix(1 0 0 -1 51 750)" fill="#3E6088"/>
<circle cx="49" cy="2" r="6" fill="#3E6088"/>
<circle cx="49" cy="2" r="6" fill="#3E6088"/>
<circle cx="27" cy="292" r="6" fill="#3E6088"/>
<circle cx="27" cy="292" r="6" fill="#3E6088"/>
</g>
</svg>
