<svg width="20" height="20" viewBox="0 0 20 20" fill="none" xmlns="http://www.w3.org/2000/svg">
<path d="M18.2645 9.66662C16.5812 5.75828 13.4145 3.33328 9.99786 3.33328C6.58119 3.33328 3.41453 5.75828 1.73119 9.66662C1.68531 9.77175 1.66162 9.88523 1.66162 9.99995C1.66162 10.1147 1.68531 10.2281 1.73119 10.3333C3.41453 14.2416 6.58119 16.6666 9.99786 16.6666C13.4145 16.6666 16.5812 14.2416 18.2645 10.3333C18.3104 10.2281 18.3341 10.1147 18.3341 9.99995C18.3341 9.88523 18.3104 9.77175 18.2645 9.66662ZM9.99786 14.9999C7.34786 14.9999 4.85619 13.0916 3.41452 9.99995C4.85619 6.90828 7.34786 4.99995 9.99786 4.99995C12.6479 4.99995 15.1395 6.90828 16.5812 9.99995C15.1395 13.0916 12.6479 14.9999 9.99786 14.9999ZM9.99786 6.66662C9.33859 6.66662 8.69412 6.86211 8.14596 7.22838C7.59779 7.59466 7.17055 8.11525 6.91826 8.72434C6.66597 9.33342 6.59996 10.0036 6.72857 10.6502C6.85719 11.2969 7.17466 11.8908 7.64084 12.357C8.10701 12.8231 8.70095 13.1406 9.34756 13.2692C9.99416 13.3979 10.6644 13.3318 11.2735 13.0795C11.8826 12.8273 12.4032 12.4 12.7694 11.8518C13.1357 11.3037 13.3312 10.6592 13.3312 9.99995C13.3312 9.11589 12.98 8.26805 12.3549 7.64293C11.7298 7.0178 10.8819 6.66662 9.99786 6.66662ZM9.99786 11.6666C9.66822 11.6666 9.34599 11.5689 9.07191 11.3857C8.79783 11.2026 8.5842 10.9423 8.45806 10.6378C8.33191 10.3332 8.29891 9.9981 8.36322 9.6748C8.42752 9.3515 8.58626 9.05453 8.81935 8.82144C9.05243 8.58835 9.34941 8.42962 9.67271 8.36531C9.99601 8.301 10.3311 8.334 10.6357 8.46015C10.9402 8.5863 11.2005 8.79992 11.3836 9.074C11.5668 9.34808 11.6645 9.67031 11.6645 9.99995C11.6645 10.442 11.4889 10.8659 11.1764 11.1785C10.8638 11.491 10.4399 11.6666 9.99786 11.6666Z" fill="#999999"/>
</svg>
