<svg width="20" height="20" viewBox="0 0 20 20" fill="none" xmlns="http://www.w3.org/2000/svg">
<path d="M18.2646 9.66662C16.5813 5.75828 13.4146 3.33328 9.99797 3.33328C6.5813 3.33328 3.41464 5.75828 1.7313 9.66662C1.68542 9.77175 1.66173 9.88523 1.66173 9.99995C1.66173 10.1147 1.68542 10.2281 1.7313 10.3333C3.41464 14.2416 6.5813 16.6666 9.99797 16.6666C13.4146 16.6666 16.5813 14.2416 18.2646 10.3333C18.3105 10.2281 18.3342 10.1147 18.3342 9.99995C18.3342 9.88523 18.3105 9.77175 18.2646 9.66662ZM9.99797 14.9999C7.34797 14.9999 4.8563 13.0916 3.41464 9.99995C4.8563 6.90828 7.34797 4.99995 9.99797 4.99995C12.648 4.99995 15.1396 6.90828 16.5813 9.99995C15.1396 13.0916 12.648 14.9999 9.99797 14.9999ZM9.99797 6.66662C9.3387 6.66662 8.69423 6.86211 8.14607 7.22838C7.59791 7.59466 7.17066 8.11525 6.91837 8.72434C6.66608 9.33342 6.60007 10.0036 6.72869 10.6502C6.8573 11.2969 7.17477 11.8908 7.64095 12.357C8.10712 12.8231 8.70107 13.1406 9.34767 13.2692C9.99427 13.3979 10.6645 13.3318 11.2736 13.0795C11.8827 12.8273 12.4033 12.4 12.7695 11.8518C13.1358 11.3037 13.3313 10.6592 13.3313 9.99995C13.3313 9.11589 12.9801 8.26805 12.355 7.64293C11.7299 7.01781 10.882 6.66662 9.99797 6.66662ZM9.99797 11.6666C9.66833 11.6666 9.3461 11.5689 9.07202 11.3857C8.79794 11.2026 8.58432 10.9423 8.45817 10.6378C8.33202 10.3332 8.29902 9.9981 8.36333 9.6748C8.42764 9.3515 8.58637 9.05453 8.81946 8.82144C9.05255 8.58835 9.34952 8.42962 9.67282 8.36531C9.99612 8.301 10.3312 8.334 10.6358 8.46015C10.9403 8.5863 11.2006 8.79992 11.3838 9.074C11.5669 9.34808 11.6646 9.67031 11.6646 9.99995C11.6646 10.442 11.489 10.8659 11.1765 11.1785C10.8639 11.491 10.44 11.6666 9.99797 11.6666Z" fill="#999999"/>
<path d="M18.09 1.74162C18.0125 1.66351 17.9204 1.60151 17.8188 1.55921C17.7173 1.5169 17.6083 1.49512 17.4983 1.49512C17.3883 1.49512 17.2794 1.5169 17.1778 1.55921C17.0763 1.60151 16.9841 1.66351 16.9067 1.74162L1.90665 16.7416C1.82855 16.8191 1.76655 16.9113 1.72425 17.0128C1.68194 17.1144 1.66016 17.2233 1.66016 17.3333C1.66016 17.4433 1.68194 17.5522 1.72425 17.6538C1.76655 17.7553 1.82855 17.8475 1.90665 17.9249C1.98412 18.0031 2.07629 18.0651 2.17784 18.1074C2.27939 18.1497 2.38831 18.1714 2.49832 18.1714C2.60833 18.1714 2.71725 18.1497 2.8188 18.1074C2.92035 18.0651 3.01252 18.0031 3.08999 17.9249L18.09 2.92495C18.1681 2.84748 18.2301 2.75531 18.2724 2.65376C18.3147 2.55221 18.3365 2.44329 18.3365 2.33328C18.3365 2.22327 18.3147 2.11435 18.2724 2.0128C18.2301 1.91125 18.1681 1.81908 18.09 1.74162Z" fill="#999999"/>
</svg>
