<svg width="9" height="15" viewBox="0 0 9 15" fill="none" xmlns="http://www.w3.org/2000/svg">
<path d="M0.81251 8.23954L6.70834 14.125C6.80518 14.2226 6.92039 14.3001 7.04732 14.353C7.17426 14.4058 7.31041 14.4331 7.44793 14.4331C7.58544 14.4331 7.72159 14.4058 7.84853 14.353C7.97546 14.3001 8.09067 14.2226 8.18751 14.125C8.38152 13.9298 8.49042 13.6658 8.49042 13.3906C8.49042 13.1154 8.38152 12.8514 8.18751 12.6562L3.03126 7.44787L8.18751 2.29162C8.38152 2.09645 8.49042 1.83244 8.49042 1.55725C8.49042 1.28205 8.38152 1.01804 8.18751 0.822872C8.09104 0.724447 7.97599 0.646145 7.84904 0.592503C7.72208 0.53886 7.58575 0.510945 7.44793 0.510373C7.31011 0.510945 7.17377 0.53886 7.04682 0.592502C6.91986 0.646145 6.80482 0.724447 6.70834 0.822872L0.81251 6.70829C0.706775 6.80583 0.622391 6.92422 0.564675 7.05599C0.50696 7.18776 0.477163 7.33006 0.477163 7.47391C0.477163 7.61777 0.50696 7.76006 0.564675 7.89183C0.622391 8.0236 0.706775 8.14199 0.81251 8.23954Z" fill="#B8B8B8"/>
</svg>
