<svg width="16" height="15" viewBox="0 0 16 15" fill="none" xmlns="http://www.w3.org/2000/svg">
<path d="M9.59722 7.11516H11.5327C11.6379 7.11576 11.7423 7.09583 11.8397 7.05651C11.9371 7.0172 12.0258 6.95926 12.1005 6.88604L15.7634 3.26755C15.8384 3.1941 15.8979 3.10672 15.9385 3.01044C15.9791 2.91416 16 2.8109 16 2.7066C16 2.6023 15.9791 2.49904 15.9385 2.40276C15.8979 2.30648 15.8384 2.2191 15.7634 2.14565L13.828 0.2337C13.7536 0.159648 13.6652 0.100872 13.5677 0.0607614C13.4703 0.0206509 13.3657 0 13.2602 0C13.1546 0 13.05 0.0206509 12.9526 0.0607614C12.8551 0.100872 12.7667 0.159648 12.6923 0.2337L9.02938 3.85219C8.88324 4.0036 8.8004 4.20396 8.79745 4.41314V6.32509C8.79745 6.53463 8.88171 6.73559 9.0317 6.88375C9.18168 7.03192 9.38511 7.11516 9.59722 7.11516ZM10.397 4.74497L13.2602 1.91654L14.0599 2.7066L11.1968 5.53503H10.397V4.74497ZM15.1956 6.32509C14.9835 6.32509 14.7801 6.40833 14.6301 6.5565C14.4801 6.70467 14.3958 6.90562 14.3958 7.11516V12.6456C14.3958 12.8551 14.3116 13.0561 14.1616 13.2043C14.0116 13.3524 13.8082 13.4357 13.5961 13.4357H2.3993C2.18719 13.4357 1.98377 13.3524 1.83378 13.2043C1.6838 13.0561 1.59954 12.8551 1.59954 12.6456V5.05309L6.30217 9.70657C6.52536 9.92992 6.79122 10.1073 7.08434 10.2283C7.37745 10.3493 7.69198 10.4117 8.00968 10.4117C8.32737 10.4117 8.6419 10.3493 8.93502 10.2283C9.22813 10.1073 9.494 9.92992 9.71718 9.70657C9.86372 9.55888 9.9458 9.36033 9.9458 9.15352C9.9458 8.94672 9.86372 8.74817 9.71718 8.60048C9.6427 8.52523 9.55375 8.46544 9.45555 8.42462C9.35735 8.3838 9.25189 8.36277 9.14535 8.36277C9.03881 8.36277 8.93335 8.3838 8.83515 8.42462C8.73695 8.46544 8.648 8.52523 8.57351 8.60048C8.42402 8.74524 8.22302 8.82633 8.01368 8.82633C7.80434 8.82633 7.60334 8.74524 7.45384 8.60048L2.72721 3.9391H6.39815C6.61026 3.9391 6.81368 3.85586 6.96367 3.7077C7.11365 3.55953 7.19791 3.35857 7.19791 3.14904C7.19791 2.9395 7.11365 2.73854 6.96367 2.59038C6.81368 2.44221 6.61026 2.35897 6.39815 2.35897H2.3993C1.76297 2.35897 1.1527 2.60869 0.70274 3.05319C0.252783 3.49768 0 4.10055 0 4.72916V12.6298C0 13.2584 0.252783 13.8613 0.70274 14.3058C1.1527 14.7503 1.76297 15 2.3993 15H13.5961C14.2324 15 14.8427 14.7503 15.2926 14.3058C15.7426 13.8613 15.9954 13.2584 15.9954 12.6298V7.09936C15.9954 6.88982 15.9111 6.68886 15.7611 6.5407C15.6111 6.39253 15.4077 6.30929 15.1956 6.30929V6.32509Z" fill="black"/>
</svg>
