<svg width="15" height="19" viewBox="0 0 15 19" fill="none" xmlns="http://www.w3.org/2000/svg">
<path d="M7.5 10.375C7.23361 10.3719 6.97265 10.4505 6.75226 10.6001C6.53187 10.7498 6.36263 10.9634 6.26731 11.2122C6.17199 11.461 6.15518 11.733 6.21913 11.9916C6.28308 12.2502 6.42473 12.4831 6.625 12.6587V13.875C6.625 14.1071 6.71719 14.3296 6.88128 14.4937C7.04538 14.6578 7.26794 14.75 7.5 14.75C7.73206 14.75 7.95462 14.6578 8.11872 14.4937C8.28281 14.3296 8.375 14.1071 8.375 13.875V12.6587C8.57527 12.4831 8.71692 12.2502 8.78087 11.9916C8.84482 11.733 8.82801 11.461 8.73269 11.2122C8.63737 10.9634 8.46813 10.7498 8.24774 10.6001C8.02735 10.4505 7.76639 10.3719 7.5 10.375ZM11.875 6.875V5.125C11.875 3.96468 11.4141 2.85188 10.5936 2.03141C9.77312 1.21094 8.66032 0.75 7.5 0.75C6.33968 0.75 5.22688 1.21094 4.40641 2.03141C3.58594 2.85188 3.125 3.96468 3.125 5.125V6.875C2.42881 6.875 1.76113 7.15156 1.26884 7.64384C0.776562 8.13613 0.5 8.80381 0.5 9.5V15.625C0.5 16.3212 0.776562 16.9889 1.26884 17.4812C1.76113 17.9734 2.42881 18.25 3.125 18.25H11.875C12.5712 18.25 13.2389 17.9734 13.7312 17.4812C14.2234 16.9889 14.5 16.3212 14.5 15.625V9.5C14.5 8.80381 14.2234 8.13613 13.7312 7.64384C13.2389 7.15156 12.5712 6.875 11.875 6.875ZM4.875 5.125C4.875 4.42881 5.15156 3.76113 5.64384 3.26884C6.13613 2.77656 6.80381 2.5 7.5 2.5C8.19619 2.5 8.86387 2.77656 9.35616 3.26884C9.84844 3.76113 10.125 4.42881 10.125 5.125V6.875H4.875V5.125ZM12.75 15.625C12.75 15.8571 12.6578 16.0796 12.4937 16.2437C12.3296 16.4078 12.1071 16.5 11.875 16.5H3.125C2.89294 16.5 2.67038 16.4078 2.50628 16.2437C2.34219 16.0796 2.25 15.8571 2.25 15.625V9.5C2.25 9.26794 2.34219 9.04538 2.50628 8.88128C2.67038 8.71719 2.89294 8.625 3.125 8.625H11.875C12.1071 8.625 12.3296 8.71719 12.4937 8.88128C12.6578 9.04538 12.75 9.26794 12.75 9.5V15.625Z" fill="black"/>
</svg>
