<svg width="789" height="948" viewBox="0 0 789 948" fill="none" xmlns="http://www.w3.org/2000/svg">
<g opacity="0.5">
<path d="M590.523 754.02C586.54 752.461 582.713 750.51 578.596 749.292C575.276 748.31 571.943 747.397 568.418 747.811C566.673 748.409 565.752 746.982 564.547 746.243C563.344 745.162 563.6 744.154 564.512 742.963C582.978 718.814 593.276 691.055 600.175 661.828C602.39 652.447 602.26 643.081 599.318 633.794C597.351 627.583 596.303 621.095 593.745 615.055C593.49 614.453 593.357 613.845 593.981 613.348C595.398 612.427 596.605 611.218 597.522 609.799C601.632 603.137 605.09 596.172 606.654 588.447C609.559 574.109 611.318 559.624 612.405 545.027C613.235 533.881 613.151 522.733 612.788 511.619C612.412 500.081 610.831 488.594 609.491 477.111C607.284 458.199 604.046 439.458 600.259 420.806C600.211 420.503 600.111 420.21 599.964 419.94C600.072 420.172 600.14 420.421 600.166 420.676C602.226 434.013 602.581 447.469 602.079 460.894C601.518 475.894 601.193 490.913 599.833 505.886C599.379 510.888 599.164 515.948 599.053 520.985C598.753 534.652 597.225 548.226 596.204 561.839C595.184 575.454 592.474 588.916 592.66 602.643C592.706 606.032 593.474 609.316 593.558 612.677C592.334 619.177 591.743 625.772 590.725 632.303C589.6 639.702 587.298 646.872 583.907 653.544C582.236 656.815 581.433 656.862 578.253 655.169C559.204 645.029 545.905 629.486 535.344 610.979C520.212 584.464 511.913 555.967 508.729 525.771C507.736 516.353 507.017 506.907 507.025 497.472C507.038 481.141 508.996 464.95 512.325 448.956C513.177 445.051 513.245 441.016 512.528 437.084C509.937 423.003 507.264 408.922 502.964 395.264C499.655 384.752 496.175 374.217 489.836 364.977C486.157 358.045 481.323 352.097 475.551 346.717C468.094 339.768 460.602 332.852 453.193 325.85C438.817 312.263 424.079 299.119 406.991 288.9C402.877 286.44 398.417 284.875 393.971 283.307C375.82 276.908 357.88 269.905 339.532 264.072C332.515 261.841 325.498 259.622 318.6 257.043C317.361 256.581 315.862 256.487 315.217 255.01C319.001 246.149 319.329 236.88 318.598 227.452C317.155 209.681 319.455 191.806 325.35 174.979C329.269 163.771 335.483 154.303 345.686 147.698C350.628 144.498 350.517 143.787 345.294 140.927C339.474 137.726 334.302 133.468 330.043 128.372C327.063 124.845 323.947 121.426 321.32 117.612C322.359 116.383 323.974 116.46 325.296 115.874C327.957 114.696 328.409 113.48 326.912 110.958C324.845 107.371 321.593 104.614 317.716 103.162C302.807 97.4498 287.368 93.9528 271.574 91.8358C266.807 91.1968 261.918 91.4108 257.278 89.8587C256.385 87.8821 257.125 86.1734 258.172 84.5269C259.602 82.277 261.524 80.484 263.577 78.8267C271.31 72.5849 280.259 69.1781 289.981 67.6633C303.48 65.5599 316.584 67.4113 329.438 71.7202C333.918 73.222 338.433 74.6206 342.945 76.0244C343.952 76.3206 344.982 76.5369 346.023 76.6713C349.126 77.1189 349.512 76.8303 350.669 73.9317C352.483 69.3854 355.925 66.4641 360.296 64.5111C364.418 62.5488 368.656 64.0515 372.706 64.5035C393.338 66.8064 413.605 71.027 433.302 77.6553C446.91 82.2346 459.948 88.0744 471.322 97.0604C478.159 102.461 483.296 109.333 487.76 116.741C487.167 117.764 486.049 117.881 485.093 118.264C471.523 123.711 457.974 129.203 444.971 135.935C440.001 138.508 435.238 141.393 431.372 145.529C427.401 149.778 425.67 154.827 425.146 160.637C424.156 171.6 428.417 181.002 433.008 190.41C435.409 195.33 437.569 200.342 438.565 205.793C439.101 208.727 439.334 211.622 438.763 214.562C438.665 215.068 438.363 215.726 438.755 216.07C439.33 216.576 439.895 215.929 440.423 215.688C444.875 213.655 448.75 210.725 452.321 207.465C463.752 197.032 473.016 184.818 481.106 171.69C486.905 162.282 492.086 152.53 496.935 142.599C497.558 141.322 497.897 139.75 499.523 139.205C502.461 146.446 503.508 154 503.263 161.768C496.303 170.972 492.505 181.366 491.489 192.831C489.818 211.679 495.992 227.633 509.053 241.143C514.936 247.228 521.652 252.22 528.736 256.76C530.065 257.6 531.323 258.546 532.5 259.588C537.433 265.307 542.348 271.04 547.302 276.741C558.75 289.918 570.321 302.983 581.144 316.698C602.451 343.699 615.999 374.242 623.36 407.688C627.113 424.949 629.481 442.481 630.444 460.118C631.464 478.392 631.418 496.71 630.305 514.979C630.145 517.061 630.714 519.134 631.914 520.842C636.088 527.145 639.857 533.691 642.803 540.678C644.314 549.796 645.601 558.957 646.118 568.176C646.681 578.215 647.306 588.21 645.958 598.344C643.98 613.217 642.262 628.138 640.671 643.07C638.729 661.304 634.3 679.062 628.995 696.596C628.417 698.507 627.832 700.419 627.311 702.344C621.872 722.418 608.883 737.444 594.446 751.489C593.344 752.561 592.161 753.692 590.523 754.02Z" fill="#434343"/>
<path d="M593.761 613.833C594.651 614.615 595.096 615.64 595.433 616.751C598.06 625.405 600.35 634.149 602.366 642.964C602.678 644.513 602.789 646.095 602.695 647.672C602.435 655.712 600.815 663.501 598.747 671.252C593.406 691.271 586.02 710.445 575.547 728.361C572.318 733.885 568.97 739.355 564.539 744.051C563.573 745.075 564.672 745.417 565.218 745.929C566.276 748.437 564.473 748.323 563.003 748.181C559.123 747.808 555.311 746.952 551.522 746.096C544.12 744.424 536.498 744.3 529.087 742.671C526.269 742.052 524.342 740.719 522.971 738.251C520.711 734.185 518.999 729.883 517.482 725.515C511.097 707.129 507.544 688.13 505.788 668.801C505.304 663.99 505.135 659.152 505.284 654.318C505.259 654.002 505.327 653.685 505.479 653.407C504.871 653.592 505.272 654.07 505.286 654.34C505.73 663.154 505.691 671.986 505.927 680.802C506.207 691.3 505.007 701.811 501.015 711.749C499.453 715.675 497.093 719.234 494.085 722.202C488.446 727.759 481.517 727.622 474.304 726.688C465.93 725.603 459.391 720.599 452.354 716.738C442.029 711.074 431.793 705.247 421.645 699.257C419.855 698.196 417.826 697.396 416.849 695.33C407.589 684.198 398.803 672.709 391.125 660.419C388.686 656.514 385.939 652.773 384.096 648.51C384.462 648.077 384.333 647.694 383.978 647.333L384.007 647.375C383.669 647 383.771 646.404 383.35 646.072L383.372 646.108C383.037 645.736 383.141 645.142 382.72 644.812L382.737 644.843C375.092 629.385 370.566 612.834 365.719 596.392C361.907 583.465 358.9 570.343 356.165 557.156C355.866 555.711 354.713 553.656 356.407 552.831C358.049 552.032 359.026 554.095 359.98 555.264C369.491 566.923 379.444 578.213 390.154 588.758C401.848 600.271 414.158 611.136 428.389 619.559C431.11 621.169 434 622.448 436.784 623.933C437.14 624.123 437.432 624.424 437.837 624.526C437.479 624.305 437.134 624.064 436.801 623.806C431.228 619.664 425.998 615.08 421.162 610.097C410.473 598.918 400.663 586.931 391.819 574.242C381.905 560.105 373.299 545.16 364.547 530.288C357.612 518.504 350.759 506.675 343.987 494.802C335.59 480.118 328.692 464.921 324.682 448.384C321.832 436.632 317.576 425.264 313.419 413.9C312.633 411.751 312.132 409.519 311.35 407.373C310.242 404.989 310.185 402.352 309.683 399.841C306.763 385.219 303.437 370.701 299.576 356.295C298.15 350.976 296.546 345.672 295.805 340.182C301.128 339.714 304.839 336.335 308.937 333.372C315.473 328.647 322.964 325.758 330.874 324.135C340.803 322.099 350.779 321.688 360.945 322.335C385.917 323.927 409.403 331.375 432.796 339.432C447.317 344.433 461.726 349.701 475.694 356.112C480.843 358.476 486.023 360.799 490.433 364.473C494.015 368.984 496.04 374.287 498.26 379.519C504.754 394.818 508.218 410.947 511.528 427.123C512.392 431.343 513.091 435.598 513.881 439.833C514.272 441.902 514.246 444.028 513.804 446.087C510.013 464.148 507.627 482.371 508.029 500.868C508.602 527.204 512.226 553.058 521.087 577.976C528.117 597.743 537.983 616.013 551.088 632.45C555.103 637.484 559.716 641.956 565.121 645.528C570.035 648.775 575.006 651.936 579.902 655.208C581.176 656.059 581.865 655.921 582.559 654.549C583.659 652.396 584.647 650.188 585.52 647.934C588.634 639.823 590.324 631.409 591.125 622.78C591.387 619.959 591.933 617.164 592.346 614.356C592.423 613.833 592.484 613.308 593.087 613.099C593.252 613.155 593.401 613.251 593.518 613.379C593.636 613.508 593.72 613.663 593.761 613.833Z" fill="#D9D9D9"/>
<path d="M490.433 364.473C490.031 364.364 489.638 364.222 489.26 364.047C471.525 354.02 452.475 347.11 433.314 340.475C419.128 335.562 404.883 330.826 390.225 327.481C376.455 324.337 362.523 322.496 348.374 322.868C336.378 323.183 324.823 325.475 314.063 331.088C310.766 332.807 307.864 335.019 305.09 337.446C302.418 339.782 299.407 340.993 295.805 340.182C291.549 323.277 292.31 306.642 298.409 290.269C300.952 283.473 303.885 276.83 307.195 270.373C309.821 265.228 312.539 260.13 315.217 255.01C330.663 260.796 346.566 265.237 362.04 270.948C374.455 275.529 386.915 279.99 399.384 284.425C403.388 285.849 407.026 287.9 410.509 290.27C416.244 294.171 421.991 298.057 427.668 302.041C431.636 304.826 435.052 308.283 438.613 311.547C451.862 323.693 465.067 335.888 478.226 348.133C483.269 352.825 487.256 358.359 490.433 364.473Z" fill="#FDBE01"/>
<path d="M590.523 754.02C591.441 752.247 593.312 751.518 594.687 750.244C601.65 743.798 607.713 736.574 613.197 728.861C615.443 725.702 617.699 722.548 619.729 719.227C621.156 716.9 622.32 714.422 623.199 711.839C628.685 695.65 633.44 679.261 636.698 662.453C638.091 655.263 639.253 648.042 640.278 640.797C640.717 637.693 640.762 634.534 641.063 631.408C641.483 627.033 641.863 622.65 642.462 618.299C643.36 611.774 644.351 605.274 644.955 598.701C645.482 592.96 646.489 587.247 646.019 581.478C645.399 573.864 645.379 566.213 644.339 558.619C643.658 553.648 643.191 548.647 642.39 543.687C642.231 542.705 641.97 541.582 642.802 540.678C647.964 551.622 651.416 563.293 653.04 575.284C654.86 588.436 653.987 601.549 652.016 614.574C647.008 647.653 645.507 680.897 646.886 714.293C647.734 734.832 650.781 755.073 655.25 775.122C656.736 781.784 658.223 788.455 659.021 795.251C659.193 796.719 659.389 798.182 658.991 799.635C658.464 801.558 657.393 802.164 655.462 801.6C654.75 801.415 654.067 801.131 653.434 800.758C646.522 796.361 638.908 796.348 631.169 797.178C629.093 797.4 626.63 798.637 625.073 797.889C623.197 796.99 622.517 794.209 621.57 792.135C616.982 782.094 610.649 773.226 603.476 764.92C599.748 760.603 595.626 756.72 590.523 754.02Z" fill="#0F0F0F"/>
<path d="M556.231 772.931C554.633 777.638 553.648 782.531 553.302 787.49C551.283 793.085 548.701 798.074 543.059 801.151C534.127 806.024 525.313 811.162 517.392 817.629C507.474 825.725 500.073 835.449 496.959 848.205C495.551 853.97 493.764 859.763 489.618 864.382C485.02 868.128 479.84 870.107 473.837 869.594C471.845 868.625 471.608 866.663 471.302 864.838C471.095 863.59 471.095 862.317 471.302 861.069C472.097 856.421 471.42 851.85 470.795 847.266C470.341 844.141 470.296 840.97 470.659 837.832C470.733 837.234 471.109 836.612 470.538 836.057C470.601 835.922 470.665 835.787 470.726 835.65C470.915 835.42 471.139 835.221 471.388 835.058C475.664 832.208 479.175 828.353 481.614 823.83C482.222 822.7 483.09 822.12 484.167 821.666C486.124 820.439 488.33 819.541 489.654 817.486C489.154 815.854 490.051 814.646 490.889 813.435C492.384 811.275 494.13 809.308 495.708 807.212C495.943 806.9 496.351 806.709 496.396 806.259C496.025 806.395 495.66 806.55 495.305 806.719C488.162 810.111 481.225 813.775 476.314 820.308C471.539 826.661 465.005 831.207 459.408 836.707C454.915 841.124 450.196 844.896 444.229 847.024C443.117 847.388 442.165 848.126 441.536 849.114C438.767 850.585 436.003 852.065 433.226 853.523C432.585 853.879 431.914 854.176 431.219 854.411C428.594 855.226 427.344 854.27 427.577 851.574C427.684 850.532 427.908 849.506 428.243 848.514C429.951 843.229 431.858 838.016 434.036 832.906C436.804 826.411 441.305 821.461 447.405 817.926C450.401 816.19 453.508 814.682 456.637 813.212C459.068 812.032 461.28 810.39 463.96 809.742C464.548 809.6 463.923 809.004 464.347 808.819C471.331 806.236 478.248 803.486 485.228 800.902C485.632 800.753 486.164 800.793 486.416 800.314C486.01 800.421 485.599 800.506 485.184 800.569C480.734 801.544 476.19 801.001 471.691 801.355C462.173 802.105 453.122 804.731 444.031 807.271C435.432 809.674 427.03 812.694 418.625 815.698C417.111 816.24 415.518 817.214 413.851 815.988C414.977 814.041 416.846 812.827 418.487 811.414C422.519 807.941 426.622 804.547 431.27 801.893C431.283 801.681 431.358 801.478 431.486 801.309C431.614 801.14 431.789 801.013 431.989 800.944C436.14 799.839 440.069 797.934 444.405 797.493C444.876 797.483 445.347 797.503 445.816 797.553C446.215 797.676 445.786 797.366 446.113 797.604C451.308 801.382 455.539 799.302 459.514 795.46C460.03 794.962 460.679 794.6 461.236 794.136C461.971 793.485 463.717 793.085 461.708 791.811C461.293 791.548 461.753 791.126 462.072 790.876C464.454 790.461 466.749 789.678 469.126 789.247C477.61 788.803 486.103 788.457 494.24 785.591C504.557 781.957 512.776 775.904 517.473 765.705C518.037 764.481 518.574 763.181 519.897 762.504C521.339 762.026 522.58 762.719 523.833 763.219C533.203 766.991 542.951 769.748 552.908 771.444C554.138 771.651 555.458 771.689 556.231 772.931Z" fill="#444343"/>
<path d="M499.523 139.205C497.09 143.27 495.264 147.643 493.109 151.85C484.832 168.006 475.412 183.417 463.502 197.19C457.005 204.702 449.982 211.643 441.05 216.312C440.044 216.837 438.834 218.035 437.959 217.47C437.008 216.856 437.813 215.347 437.993 214.253C438.747 209.661 437.979 205.239 436.536 200.904C434.438 194.6 431.414 188.689 428.581 182.705C425.341 175.939 423.866 168.463 424.293 160.973C424.711 153.017 427.938 146.624 434.243 141.751C438.176 138.711 442.454 136.245 446.883 134.034C459.314 127.829 472.177 122.61 485.061 117.442C485.845 117.127 486.622 116.807 487.492 116.864C488.258 116.951 488.493 117.717 489.044 118.079C489.661 118.751 489.975 119.659 490.715 120.238C494.321 126.249 497.534 132.443 499.523 139.205Z" fill="#FDBD01"/>
<path d="M344.886 796.946C343.007 797.197 341.102 797.159 339.235 796.835C338.509 796.726 337.794 796.338 337.732 795.45C337.683 794.755 338.104 794.25 338.689 793.937C339.708 793.392 340.76 792.908 341.784 792.374C344.106 791.164 345.938 789.558 346.52 786.827C347.122 784 349.286 782.727 351.778 781.911C355.297 780.76 358.962 780.35 362.622 779.962C370.673 779.111 378.752 778.467 386.689 776.775C392.776 775.477 398.698 773.677 404.158 770.606C415.459 764.247 422.034 754.646 423.882 741.801C424.38 738.346 424.47 734.889 424.517 731.418C425.71 730.241 426.908 731.051 428.008 731.515C437.017 735.313 446.126 738.857 455.286 742.272C456.207 742.615 457.455 742.705 457.441 744.168C456.717 746.538 456.966 748.919 457.166 751.343C457.71 757.936 457.972 764.553 456.978 771.124C456.02 777.46 453.373 783.158 449.873 788.475C448.322 790.877 445.972 792.655 443.237 793.492C439.545 794.686 436.009 796.456 432.269 797.395C420.223 800.422 408.501 805.328 395.779 804.749C390.186 804.495 384.352 804.538 379.527 800.809C378.494 799.945 377.461 799.082 376.427 798.218C375.66 796.869 376.641 796.16 377.574 795.782C387.729 791.677 396.705 785.241 406.81 781.044C407.557 780.732 408.325 780.475 409.109 780.275C408.284 780.338 407.566 780.752 406.793 780.977C400.032 782.942 393.193 784.608 386.304 786.037C380.601 787.221 375.231 789.352 369.914 791.579C361.985 794.933 353.493 796.755 344.886 796.946Z" fill="#444343"/>
<path d="M457.29 743.928C449.097 740.755 440.902 737.585 432.706 734.418C429.993 733.376 427.512 731.69 424.517 731.418C424.108 720.106 421.639 709.227 417.683 698.652C417.285 697.589 416.687 696.546 416.849 695.33C422.911 698.887 428.947 702.489 435.041 705.99C442.683 710.381 450.352 714.726 458.048 719.024C461.16 720.773 464.177 722.839 467.499 724.035C473.235 726.1 479.287 727.095 485.372 726.006C490.756 725.042 494.352 721.362 497.29 716.964C500.685 711.882 502.341 706.18 503.348 700.243C504.044 696.33 504.513 692.379 504.751 688.412C504.891 685.706 505.543 682.965 505.183 680.277C504.131 672.417 504.852 664.535 504.622 656.668C504.601 655.933 504.619 655.195 504.642 654.459C504.7 653.527 505.017 652.63 505.559 651.87C506.194 652.655 505.833 653.577 505.873 654.429C506.145 660.283 506.559 666.123 507.063 671.965C508.154 684.608 510.42 697.043 513.529 709.314C515.847 718.462 518.547 727.518 522.775 736.024C523.056 736.589 523.319 737.165 523.63 737.712C524.85 739.855 526.187 741.502 529.079 741.786C533.116 742.183 537.075 743.141 541.172 743.467C546.25 743.871 551.256 745.191 556.29 746.128C558.754 746.587 561.216 747.056 563.67 747.562C565.124 747.861 565.248 746.99 565.218 745.929C566.54 746.122 566.979 747.817 568.418 747.811C564.753 748.483 563.457 751.2 562.754 754.405C561.341 760.849 558.832 766.906 556.231 772.931C546.303 771.39 536.547 768.895 527.098 765.48C524.651 764.598 522.385 763.204 519.751 762.846C518.897 761.458 519.746 760.206 520.105 758.94C521.381 754.614 522.266 750.181 522.749 745.696C522.92 743.939 522.525 743.043 520.504 742.827C510.214 741.726 500.467 738.346 490.621 735.422C483.887 733.422 477.133 731.451 470.628 728.764C468.375 727.833 467.183 728.445 466.345 730.725C464.959 734.494 463.807 738.276 463.788 742.333C463.783 743.378 463.784 744.444 463.092 745.343C460.791 746.376 458.911 745.679 457.29 743.928Z" fill="#B5B5B5"/>
<path d="M311.35 407.373C312.843 409.439 313.541 411.888 314.383 414.217C319.445 428.225 324.26 442.322 327.918 456.773C330.465 466.834 334.76 476.086 339.734 485.152C344.025 492.975 348.309 500.805 352.585 508.642C355.455 513.887 358.373 519.133 361.69 524.098C365.725 530.136 368.98 536.607 372.716 542.807C376.453 549.009 380.224 555.184 384.097 561.301C389.431 569.726 395.158 577.87 401.28 585.731C406.112 591.924 411.013 598.071 416.436 603.792C418.742 606.224 420.885 608.826 423.32 611.139C428.034 615.617 432.859 619.973 438.088 623.856C438.339 624.043 438.648 624.154 438.893 624.347C439.299 624.666 439.948 625.077 439.716 625.544C439.457 626.067 438.783 625.769 438.312 625.529C434.85 623.759 431.288 622.156 427.953 620.173C418.916 614.8 410.607 608.434 402.76 601.432C397.12 596.4 391.35 591.482 386.227 585.939C380.607 579.859 374.794 573.954 369.46 567.595C365.826 563.262 362.087 559.012 358.513 554.623C358.178 554.217 357.806 553.843 357.401 553.506C357.18 553.32 356.82 553.08 356.609 553.145C356.111 553.298 356.215 553.815 356.293 554.189C356.958 557.362 357.663 560.526 358.331 563.697C361.573 579.082 365.804 594.203 370.33 609.252C373.444 619.606 376.986 629.809 380.954 639.86C381.599 641.5 382.88 642.919 382.737 644.843C381.513 644.338 381.299 643.096 380.794 642.098C373.042 626.777 367.284 610.692 362.419 594.258C356.758 575.138 352.754 555.635 348.805 536.118C348.586 535.093 348.426 534.056 348.325 533.012C347.983 528.998 346.074 525.798 343.738 522.569C339.357 516.512 336.142 509.763 333.444 502.783C327.373 487.071 323.509 470.758 320.218 454.291C318.166 444.02 316.054 433.759 314.21 423.45C313.253 418.093 311.832 412.815 311.35 407.373Z" fill="#B6B6B6"/>
<path d="M488.846 118.477C488.395 117.94 487.944 117.402 487.493 116.865C483.748 112.352 480.678 107.317 476.622 103.041C471.951 98.1174 466.521 94.221 460.695 90.8171C449.755 84.4252 438.063 79.8677 425.965 76.1888C415.523 73.0134 404.9 70.6114 394.22 68.5061C387.977 67.2752 381.673 66.2164 375.299 65.6609C370.3 65.2253 365.341 64.3259 360.295 64.5111C364.474 61.5294 369.317 60.1263 374.17 58.829C391.056 54.3153 407.551 56.254 423.664 62.3221C448.523 71.6838 468.19 87.7829 483.649 109.209C485.551 111.845 487.486 114.471 488.942 117.401C489.039 117.568 489.083 117.762 489.065 117.954C489.048 118.147 488.972 118.33 488.846 118.477Z" fill="#131010"/>
<path d="M532.5 259.588C528.686 258.252 525.569 255.721 522.332 253.456C516.998 249.739 512.052 245.493 507.57 240.783C499.047 231.8 493.476 221.341 491.357 209.097C490.697 205.284 490.025 201.444 490.202 197.578C490.755 185.433 493.901 174.058 500.73 163.851C501.371 162.894 501.877 161.805 503.263 161.768C503.495 167.769 502.711 173.723 502.406 179.699C501.903 189.568 501.456 199.424 503.245 209.236C504.56 216.448 507.222 223.127 510.776 229.493C515.404 237.782 521.229 245.225 527.102 252.636C528.924 254.935 530.702 257.27 532.5 259.588Z" fill="#111010"/>
<path d="M457.29 743.928C459.14 744.251 460.748 745.416 462.674 745.47C463.779 745.726 464.18 746.61 464.278 747.557C465.217 756.651 468.356 765.273 469.959 774.219C470.692 778.307 471.929 782.376 470.943 786.617C470.656 787.849 470.42 789.077 469.45 789.995C466.771 790.52 464.203 791.583 461.43 791.643C455.296 791.942 450.354 795.239 445.23 798.08C444.188 798.079 443.153 798.24 442.161 798.558C438.534 799.684 434.899 800.784 431.269 801.893C428.649 800.987 426.105 801.984 423.599 802.395C415.549 803.714 407.547 805.33 399.511 806.741C396.314 807.319 393.06 807.521 389.816 807.343C385.132 807.069 381.623 805.087 379.527 800.809C380.527 800.643 381.387 801.045 382.223 801.499C384.587 802.784 387.171 803.206 389.798 803.313C391.796 803.394 393.718 803.913 395.728 804.001C401.248 804.241 406.632 803.679 411.867 801.926C415.43 800.688 419.105 799.8 422.841 799.274C428.611 798.52 433.804 795.762 439.284 793.982C440.681 793.528 442.022 792.869 443.442 792.528C445.865 791.946 447.554 790.434 448.857 788.473C453.717 781.16 456.797 773.271 456.703 764.316C456.641 758.436 456.661 752.56 456.063 746.698C455.957 745.66 455.566 744.26 457.29 743.928Z" fill="#111111"/>
<path d="M489.453 863.922C492.827 859.003 494.82 853.46 496.341 847.782C498.896 838.245 503.409 829.995 510.429 822.925C517.622 815.68 526.067 810.292 534.681 805.071C538 803.06 541.414 801.203 544.82 799.341C545.816 798.776 546.679 798.002 547.346 797.071C549.648 794.066 551.146 790.575 553.302 787.49C553.54 792.719 554.193 797.937 553.379 803.182C552.829 806.725 551.124 809.396 548.108 811.348C545.344 813.138 542.307 814.248 539.229 815.283C534.755 816.786 530.339 818.399 526.258 820.832C516.616 826.581 509.495 834.588 506.031 845.253C503.708 852.405 499.816 857.957 493.639 862.055C492.424 862.861 491.406 863.954 490.039 864.542C489.523 864.638 489.219 864.534 489.453 863.922Z" fill="#101111"/>
<path d="M413.851 815.987C416.754 815.909 419.329 814.624 421.963 813.657C436.354 808.374 450.988 803.956 466.031 800.946C468.298 800.492 470.621 800.675 472.92 800.433C477.915 799.91 482.977 800.157 487.987 799.584C488.237 799.556 488.689 799.664 488.737 799.81C488.857 800.174 488.444 800.302 488.191 800.441C485.318 802.006 482.178 802.911 479.141 804.067C474.179 805.955 469.196 807.79 464.221 809.647C462.07 810.973 459.645 811.262 457.205 811.492C441.896 815.109 426.417 818.146 411.969 824.713C411.402 824.987 410.808 825.203 410.197 825.357C409.29 825.559 408.241 825.915 407.558 825.025C406.883 824.147 407.332 823.219 407.902 822.411C408.37 821.713 408.874 821.04 409.413 820.395C410.586 819.058 411.629 817.587 413.151 816.591C413.279 816.357 413.491 816.179 413.745 816.093L413.851 815.987Z" fill="#101111"/>
<path d="M484.644 822.174C483.422 822.76 481.98 822.852 482.127 825.028C482.192 825.994 480.431 827.011 479.663 828.119C477.977 830.55 475.694 832.403 473.698 834.534C473.387 834.885 472.996 835.157 472.558 835.327C472.12 835.497 471.648 835.559 471.181 835.509C471.181 835.509 470.946 835.456 470.946 835.458C470.947 835.459 470.724 835.539 470.724 835.539C470.724 835.539 470.801 835.762 470.801 835.765C470.686 835.884 470.575 836.003 470.466 836.125L470.538 836.056C470.07 835.908 469.748 836.175 469.43 836.449C464.824 840.409 459.84 843.98 456.623 849.342C455.588 851.065 454.695 851.147 452.729 849.61C450.612 847.954 448.397 847.054 445.73 847.781C444.316 848.166 442.933 848.666 441.536 849.114C441.326 848.01 441.829 847.303 442.797 846.864C444.228 846.216 445.648 845.545 447.096 844.937C450.791 843.435 454.087 841.097 456.724 838.105C459.19 835.305 462.133 832.852 465.143 830.62C469.589 827.323 472.992 823.064 476.476 818.906C478.814 816.083 481.572 813.636 484.653 811.65C488.527 809.172 492.519 806.834 496.897 805.288C497.26 805.16 497.715 804.742 498.026 805.193C498.297 805.584 497.868 805.932 497.611 806.246C495.693 808.595 493.695 810.887 491.894 813.323C491.002 814.528 489.65 815.654 490.092 817.484C488.42 819.215 486.256 820.373 484.644 822.174Z" fill="#101111"/>
<path d="M257.279 89.8586C267.375 90.2524 277.349 91.6639 287.24 93.6441C297.751 95.7485 308.072 98.5461 318.082 102.444C322.175 104.038 325.236 106.793 327.611 110.367C329.729 113.554 328.939 115.731 325.33 116.802C324.028 117.188 322.659 117.348 321.32 117.611C320.915 117.286 320.533 116.932 320.177 116.553C312.304 106.995 301.941 101.637 290.149 98.6318C282.509 96.685 274.706 95.6254 266.978 94.1572C264.915 93.7798 262.879 93.27 260.882 92.6311C259.414 92.1501 257.891 91.5416 257.279 89.8586Z" fill="#F8BD05"/>
<path d="M344.886 796.946C346.635 795.722 348.763 796.196 350.641 795.98C357.391 795.205 363.776 793.263 369.937 790.616C378.071 787.121 386.594 785.076 395.169 783.126C399.859 782.06 404.513 780.84 409.182 779.684C409.641 779.571 410.086 779.203 410.554 779.653C410.246 779.922 409.915 780.165 409.566 780.379C406.572 781.9 403.57 783.407 400.563 784.902C396.239 787.047 392.056 789.441 387.857 791.819C384.857 793.518 381.627 794.823 378.452 796.193C377.442 796.629 376.444 796.877 376.428 798.218C373.198 796.948 369.745 796.345 366.276 796.444C360.403 796.579 354.532 796.825 348.659 796.999C347.403 797.036 346.144 796.967 344.886 796.946Z" fill="#111111"/>
<path d="M489.453 863.921C489.649 864.128 489.844 864.335 490.039 864.542C486.943 867.135 483.307 869.004 479.396 870.013C477.583 870.5 475.574 871.179 473.837 869.594C475.66 869.187 477.466 868.647 479.311 868.401C483.149 867.891 486.541 866.476 489.453 863.921Z" fill="#232727"/>
<path d="M457.205 811.492C459.43 810.442 461.846 810.121 464.221 809.647C461.965 811.415 459.259 812.226 456.637 813.212C456.915 812.962 457.211 812.729 457.463 812.455C457.669 812.232 458.278 812.243 458.003 811.752C457.903 811.573 457.481 811.573 457.205 811.492Z" fill="#B3C5C5"/>
<path d="M488.846 118.477C488.878 118.118 488.91 117.76 488.942 117.401C489.89 118.122 490.286 119.188 490.714 120.236C489.845 119.913 489.149 119.403 488.846 118.477Z" fill="#434343"/>
<path d="M382.72 644.812C383.273 645.075 383.367 645.57 383.372 646.108C382.757 645.877 382.667 645.38 382.72 644.812Z" fill="#B6B6B6"/>
<path d="M383.35 646.072C383.892 646.343 383.99 646.839 384.007 647.375C383.411 647.131 383.317 646.633 383.35 646.072Z" fill="#B6B6B6"/>
<path d="M383.978 647.333C384.535 647.674 384.747 648.05 384.095 648.511C384.056 648.118 384.017 647.725 383.978 647.333Z" fill="#B6B6B6"/>
<path d="M413.745 816.093C413.747 816.168 413.733 816.242 413.703 816.311C413.672 816.379 413.627 816.439 413.57 816.487C413.512 816.535 413.445 816.57 413.372 816.588C413.3 816.606 413.224 816.607 413.151 816.592C413.185 816.229 413.354 816.03 413.745 816.093Z" fill="#444343"/>
<path d="M593.761 613.833L593.087 613.099C592.288 610.175 591.849 607.165 591.78 604.135C591.626 595.829 592.316 587.605 593.521 579.387C594.28 574.215 594.46 568.961 594.961 563.75C595.501 558.126 596.118 552.51 596.69 546.89C596.977 544.076 597.169 541.229 597.274 538.431C597.459 533.501 598.028 528.601 598.126 523.665C598.265 516.647 598.719 509.64 599.185 502.631C599.477 498.244 599.753 493.84 600.027 489.447C600.497 481.894 600.274 474.315 600.781 466.788C601.235 460.293 601.346 453.779 601.113 447.272C600.792 438.895 600.75 430.497 599.926 422.142C599.824 421.104 599.548 420.085 599.399 419.051C599.377 418.752 599.419 418.452 599.521 418.171C600.047 418.187 600.015 418.679 600.141 419.022C601.481 422.675 602.283 426.476 603.091 430.265C605.101 439.683 606.605 449.198 608.027 458.714C609.125 466.055 610.172 473.415 610.819 480.826C611.456 488.119 612.412 495.384 613.21 502.663C614.059 510.407 613.905 518.182 613.907 525.952C613.907 530.37 614.084 534.804 613.776 539.202C613.491 543.266 613.403 547.352 612.785 551.403C612.39 553.982 612.323 556.615 612.084 559.221C611.146 569.454 609.416 579.559 607.437 589.62C606.358 595.104 603.947 600.172 601.36 605.098C600 607.686 598.618 610.286 596.713 612.579C595.851 613.617 594.999 614.008 593.761 613.833Z" fill="#0E0E0E"/>
<path d="M372.528 99.822C369.364 99.5216 365.411 98.4435 364.113 94.2416C363.651 92.7471 362.927 91.3286 362.263 89.9035C361.507 88.2842 360.675 86.7011 359.895 85.0931C359.433 84.1392 358.809 82.9558 359.81 82.2081C361.04 81.2888 361.554 82.8512 362.29 83.4333C366.667 86.8995 370.3 91.1686 374.505 94.8247C375.513 95.701 376.281 96.8058 375.617 98.1332C375.015 99.339 373.772 99.7737 372.528 99.822Z" fill="#020202"/>
<path d="M469.45 789.995C471.055 783.59 469.837 777.343 468.363 771.118C466.487 763.193 464.128 755.372 463.281 747.226C463.219 746.626 462.883 746.055 462.675 745.47C463.423 742.715 462.807 739.858 463.452 737.045C464.165 733.942 465.42 731.084 466.499 728.138C466.915 727 467.606 726.841 468.718 727.251C472.26 728.555 475.815 729.828 479.402 731.004C489.859 734.43 500.367 737.692 511.061 740.312C514.72 741.208 518.398 742.091 522.205 742.002C523.605 741.97 523.866 742.405 523.771 743.855C523.342 750.391 521.818 756.67 519.751 762.846C513.454 778.678 500.878 786.066 484.84 788.781C479.748 789.643 474.588 789.689 469.45 789.995Z" fill="#FEFEFE"/>
<path d="M445.23 798.08C449.79 793.823 454.992 791.181 461.429 791.643C462.373 792.215 464.221 791.37 464.331 792.328C464.462 793.485 462.419 793.482 461.7 794.474C456.773 797.714 451.204 798.2 445.532 798.249L445.431 798.075L445.23 798.08Z" fill="#F0F2F2"/>
<path d="M445.532 798.249C447.415 797.285 449.52 797.368 451.527 797.055C455.008 796.511 458.344 795.471 461.7 794.474C459.764 796.567 457.327 798.025 455.039 799.665C452.902 801.198 450.75 800.969 448.556 799.609C447.631 799.036 446.921 797.836 445.532 798.249Z" fill="#1E1717"/>
<path d="M484.644 822.174C485.742 819.777 487.874 818.582 490.092 817.485C490.211 817.875 490.309 818.253 489.887 818.549C488.149 819.772 486.614 821.287 484.644 822.174Z" fill="#A3AEAE"/>
<path d="M470.466 836.125C470.49 835.91 470.513 835.696 470.537 835.481C470.629 835.414 470.739 835.379 470.853 835.379C470.966 835.379 471.076 835.416 471.167 835.483L471.181 835.509C470.985 835.763 471.167 836.456 470.466 836.125Z" fill="white"/>
<path d="M471.167 835.484C470.957 835.483 470.747 835.482 470.537 835.482C470.653 835.336 470.753 835.09 470.89 835.069C471.138 835.029 471.24 835.23 471.167 835.484Z" fill="#444343"/>
</g>
</svg>
