<svg width="20" height="24" viewBox="0 0 20 24" fill="none" xmlns="http://www.w3.org/2000/svg">
<path d="M16.732 17.4376L12.3564 16.2652C12.1002 16.1965 11.8273 16.2325 11.5976 16.3651C11.3679 16.4977 11.2003 16.7161 11.1317 16.9723C11.063 17.2284 11.0989 17.5014 11.2316 17.7311C11.3642 17.9608 11.5826 18.1284 11.8388 18.197L14.157 18.8182C12.7932 19.6461 11.2129 20.0474 9.61931 19.9704C8.0257 19.8934 6.49151 19.3416 5.21387 18.3861C3.93623 17.4305 2.9735 16.1147 2.44939 14.6077C1.92527 13.1008 1.86371 11.4716 2.27262 9.9294C2.34126 9.67322 2.30532 9.40026 2.17272 9.17058C2.04011 8.9409 1.82169 8.7733 1.56551 8.70465C1.30933 8.63601 1.03637 8.67195 0.80669 8.80455C0.577006 8.93716 0.409408 9.15558 0.340765 9.41176C-0.15955 11.2994 -0.0962359 13.2922 0.522894 15.1443C1.14202 16.9963 2.28988 18.6266 3.82479 19.8338C5.3597 21.0411 7.21451 21.7725 9.1603 21.9379C11.1061 22.1032 13.0577 21.6952 14.7743 20.7643L14.3162 22.474C14.2476 22.7301 14.2835 23.0031 14.4161 23.2328C14.5487 23.4625 14.7671 23.6301 15.0233 23.6987C15.2795 23.7673 15.5525 23.7314 15.7821 23.5988C16.0118 23.4662 16.1794 23.2478 16.2481 22.9916L17.4128 18.6449C17.4772 18.3947 17.4424 18.1293 17.3155 17.9042C17.1886 17.6791 16.9795 17.5119 16.732 17.4376ZM12.5882 2.34069C10.1101 1.68424 7.47444 2.00461 5.22571 3.23563L5.68382 1.52594C5.75247 1.26976 5.71653 0.996809 5.58392 0.767125C5.45132 0.53744 5.2329 0.369842 4.97672 0.301199C4.72054 0.232556 4.44758 0.268491 4.2179 0.401099C3.98821 0.533707 3.82062 0.752126 3.75197 1.00831L2.58729 5.35497C2.51864 5.61115 2.55458 5.88411 2.68719 6.11379C2.8198 6.34347 3.03821 6.51107 3.29439 6.57972L7.64106 7.7444C7.89724 7.81305 8.17019 7.77711 8.39988 7.6445C8.62956 7.51189 8.79716 7.29347 8.8658 7.0373C8.93445 6.78112 8.89851 6.50816 8.7659 6.27848C8.6333 6.04879 8.41488 5.88119 8.1587 5.81255L5.84048 5.19138C7.20357 4.36385 8.78287 3.96256 10.3757 4.03902C11.9685 4.11548 13.5021 4.6662 14.7796 5.62049C16.0572 6.57478 17.0204 7.8891 17.5456 9.39473C18.0709 10.9004 18.1342 12.5286 17.7274 14.0705C17.6588 14.3267 17.6947 14.5996 17.8273 14.8293C17.9599 15.059 18.1784 15.2266 18.4345 15.2952C18.6907 15.3639 18.9637 15.328 19.1934 15.1953C19.423 15.0627 19.5906 14.8443 19.6593 14.5881C19.9992 13.3197 20.0859 11.9967 19.9145 10.6947C19.7431 9.39271 19.3169 8.13723 18.6603 6.99995C18.0037 5.86267 17.1295 4.86585 16.0876 4.06642C15.0458 3.26698 13.8567 2.68058 12.5882 2.34069Z" fill="#404040" fill-opacity="0.38"/>
</svg>
