<svg width="9" height="15" viewBox="0 0 9 15" fill="none" xmlns="http://www.w3.org/2000/svg">
<path d="M8.18751 8.23954L2.29168 14.125C2.19484 14.2226 2.07964 14.3001 1.9527 14.353C1.82576 14.4058 1.68961 14.4331 1.5521 14.4331C1.41459 14.4331 1.27843 14.4058 1.1515 14.353C1.02456 14.3001 0.909351 14.2226 0.812514 14.125C0.618503 13.9298 0.509605 13.6658 0.509605 13.3906C0.509605 13.1154 0.618503 12.8514 0.812514 12.6562L5.96876 7.44787L0.812513 2.29162C0.618502 2.09645 0.509604 1.83244 0.509604 1.55725C0.509604 1.28205 0.618502 1.01804 0.812513 0.822872C0.908987 0.724447 1.02403 0.646145 1.15099 0.592503C1.27794 0.53886 1.41428 0.510945 1.5521 0.510373C1.68992 0.510945 1.82625 0.53886 1.95321 0.592502C2.08016 0.646145 2.19521 0.724447 2.29168 0.822872L8.18751 6.70829C8.29325 6.80583 8.37763 6.92422 8.43535 7.05599C8.49306 7.18776 8.52286 7.33006 8.52286 7.47391C8.52286 7.61777 8.49306 7.76006 8.43535 7.89183C8.37763 8.0236 8.29325 8.14199 8.18751 8.23954Z" fill="#B8B8B8"/>
</svg>
