<svg width="24" height="24" viewBox="0 0 24 24" fill="none" xmlns="http://www.w3.org/2000/svg">
<path d="M23.3283 21.6716L19 17.3783C20.6801 15.2835 21.4938 12.6245 21.2736 9.94816C21.0535 7.27183 19.8163 4.78156 17.8165 2.9894C15.8166 1.19724 13.2061 0.239408 10.5218 0.312862C7.83739 0.386316 5.28319 1.48547 3.38434 3.38431C1.4855 5.28316 0.386347 7.83736 0.312893 10.5217C0.239439 13.2061 1.19727 15.8166 2.98943 17.8164C4.78159 19.8163 7.27186 21.0534 9.94819 21.2736C12.6245 21.4937 15.2835 20.6801 17.3783 19L21.6717 23.2933C21.7801 23.4027 21.9092 23.4895 22.0513 23.5487C22.1935 23.6079 22.346 23.6384 22.5 23.6384C22.654 23.6384 22.8065 23.6079 22.9487 23.5487C23.0909 23.4895 23.2199 23.4027 23.3283 23.2933C23.5386 23.0758 23.6562 22.785 23.6562 22.4825C23.6562 22.1799 23.5386 21.8892 23.3283 21.6716ZM10.8333 19C9.21813 19 7.63919 18.521 6.29619 17.6236C4.95319 16.7263 3.90644 15.4508 3.28833 13.9586C2.67021 12.4663 2.50848 10.8243 2.8236 9.24008C3.13871 7.6559 3.91651 6.20074 5.05864 5.05861C6.20077 3.91648 7.65593 3.13868 9.24011 2.82357C10.8243 2.50845 12.4663 2.67018 13.9586 3.2883C15.4509 3.90641 16.7263 4.95316 17.6237 6.29616C18.521 7.63916 19 9.2181 19 10.8333C19 12.9992 18.1396 15.0765 16.608 16.608C15.0765 18.1396 12.9993 19 10.8333 19Z" fill="white"/>
</svg>
